<svg xmlns="http://www.w3.org/2000/svg" width="552" height="600" viewBox="28 0 184 200"><g stroke="#302044" stroke-width="3" stroke-linejoin="round" stroke-linecap="round" aria-hidden="true"><path d="M62 56 54 19 83 36 99 9 120 34 141 9 157 36 186 19 178 56 Q120 69 62 56Z" fill="#ffce48"></path><path d="M63 49 Q120 61 177 49 L177 63 Q120 75 63 63Z" fill="#ffb238"></path><path d="M66 54 Q120 64 174 54" stroke="#fff4a6" stroke-width="3" fill="none"></path><path d="M120 43 130 53 120 63 110 53Z" fill="#a382ff"></path><circle cx="83" cy="55" r="4" fill="#ff83bc"></circle><circle cx="157" cy="55" r="4" fill="#45e5d4"></circle><circle cx="55" cy="18" r="4" fill="#fff0a0"></circle><circle cx="99" cy="9" r="4" fill="#fff0a0"></circle><circle cx="141" cy="9" r="4" fill="#fff0a0"></circle><circle cx="185" cy="18" r="4" fill="#fff0a0"></circle></g></svg>